<svg width="140" height="40" viewBox="0 0 140 40" fill="none" xmlns="http://www.w3.org/2000/svg">
<path d="M10.2019 14.5111L0 8.56488V31.6173L7.96296 36.1877C8.63813 36.5713 9.40396 36.7733 10.1836 36.7736C10.9632 36.7739 11.7292 36.5724 12.4046 36.1893C13.0801 35.8061 13.6412 35.2549 14.0318 34.5909C14.4223 33.9269 14.6285 33.1735 14.6296 32.4064V22.0756C14.6294 20.5436 14.2203 19.0385 13.4432 17.711C12.6662 16.3834 11.5484 15.28 10.2019 14.5111ZM9.81481 28.9749C9.81477 29.2322 9.74551 29.485 9.61409 29.7074C9.48266 29.9299 9.29374 30.1141 9.06652 30.2415C8.8393 30.3688 8.58187 30.4347 8.3204 30.4325C8.05892 30.4302 7.8027 30.3599 7.57778 30.2287L4.81481 28.6104V17.1298L7.63704 18.7699C8.30157 19.1576 8.85193 19.7091 9.23382 20.37C9.61572 21.0308 9.81597 21.7782 9.81481 22.5385V28.9749Z" fill="#53AD59"/>
<path d="M10.2019 14.5111L0 8.56488V31.6173L7.96296 36.1877C8.63813 36.5713 9.40396 36.7733 10.1836 36.7736C10.9632 36.7739 11.7292 36.5724 12.4046 36.1893C13.0801 35.8061 13.6412 35.2549 14.0318 34.5909C14.4223 33.9269 14.6285 33.1735 14.6296 32.4064V22.0756C14.6294 20.5436 14.2203 19.0385 13.4432 17.711C12.6662 16.3834 11.5484 15.28 10.2019 14.5111ZM9.81481 28.9749C9.81477 29.2322 9.74551 29.485 9.61409 29.7074C9.48266 29.9299 9.29374 30.1141 9.06652 30.2415C8.8393 30.3688 8.58187 30.4347 8.3204 30.4325C8.05892 30.4302 7.8027 30.3599 7.57778 30.2287L4.81481 28.6104V17.1298L7.63704 18.7699C8.30157 19.1576 8.85193 19.7091 9.23382 20.37C9.61572 21.0308 9.81597 21.7782 9.81481 22.5385V28.9749Z" fill="url(#paint0_linear)"/>
<path d="M19.7981 14.5111C18.4516 15.28 17.3338 16.3834 16.5568 17.711C15.7797 19.0385 15.3706 20.5436 15.3704 22.0756V40L20.3704 37.0843V31.435L25 28.7016V34.3508L30 31.6173V8.56488L19.7981 14.5111ZM25.1852 23.0524L20.1852 25.7858V22.6296C20.185 21.8703 20.3857 21.124 20.7675 20.4642C21.1494 19.8044 21.6992 19.2537 22.363 18.8665L25.1852 17.2264V23.0524Z" fill="#53AD59"/>
<path d="M19.7981 14.5111C18.4516 15.28 17.3338 16.3834 16.5568 17.711C15.7797 19.0385 15.3706 20.5436 15.3704 22.0756V40L20.3704 37.0843V31.435L25 28.7016V34.3508L30 31.6173V8.56488L19.7981 14.5111ZM25.1852 23.0524L20.1852 25.7858V22.6296C20.185 21.8703 20.3857 21.124 20.7675 20.4642C21.1494 19.8044 21.6992 19.2537 22.363 18.8665L25.1852 17.2264V23.0524Z" fill="url(#paint1_linear)"/>
<path d="M15 0L0 8.56492L5 11.4806L15 5.83144V0Z" fill="url(#paint2_linear)"/>
<path d="M15 0L0 8.56492L5 11.4806L15 5.83144V0Z" fill="black" fill-opacity="0.2"/>
<path d="M15 0L30 8.56492L25 11.4806L15 5.83144V0Z" fill="url(#paint3_linear)"/>
<path d="M15 0L30 8.56492L25 11.4806L15 5.83144V0Z" fill="black" fill-opacity="0.12"/>
<path d="M9.96484 11.5755L15 8.71442L20.0352 11.5755L15 14.4365L9.96484 11.5755Z" fill="url(#paint4_linear)"/>
<path d="M45.7199 13H39.6599V27H42.8999V23.14H45.7199C49.4599 23.14 51.7999 21.2 51.7999 18.08C51.7999 14.94 49.4599 13 45.7199 13ZM45.5399 20.5H42.8999V15.64H45.5399C47.5199 15.64 48.5199 16.54 48.5199 18.08C48.5199 19.6 47.5199 20.5 45.5399 20.5Z" fill="#25282B"/>
<path d="M58.9935 27.16C62.4135 27.16 64.8935 24.86 64.8935 21.62C64.8935 18.38 62.4135 16.08 58.9935 16.08C55.5735 16.08 53.0735 18.38 53.0735 21.62C53.0735 24.86 55.5735 27.16 58.9935 27.16ZM58.9935 24.6C57.4335 24.6 56.2335 23.48 56.2335 21.62C56.2335 19.76 57.4335 18.64 58.9935 18.64C60.5535 18.64 61.7335 19.76 61.7335 21.62C61.7335 23.48 60.5535 24.6 58.9935 24.6Z" fill="#25282B"/>
<path d="M69.959 17.66V16.24H66.979V27H70.099V21.92C70.099 19.86 71.239 18.92 72.959 18.92C73.199 18.92 73.399 18.94 73.659 18.96V16.08C71.999 16.08 70.719 16.62 69.959 17.66Z" fill="#25282B"/>
<path d="M81.9852 24.28C81.6452 24.54 81.1852 24.68 80.7252 24.68C79.8852 24.68 79.3852 24.18 79.3852 23.26V18.88H82.0652V16.48H79.3852V13.86H76.2652V16.48H74.6052V18.88H76.2652V23.3C76.2652 25.86 77.7452 27.16 80.2852 27.16C81.2452 27.16 82.1852 26.94 82.8252 26.48L81.9852 24.28Z" fill="#25282B"/>
<path d="M88.9166 16.08C87.1966 16.08 85.4566 16.54 84.2766 17.38L85.3966 19.56C86.1766 18.94 87.3566 18.56 88.4966 18.56C90.1766 18.56 90.9766 19.34 90.9766 20.68H88.4966C85.2166 20.68 83.8766 22 83.8766 23.9C83.8766 25.76 85.3766 27.16 87.8966 27.16C89.4766 27.16 90.5966 26.64 91.1766 25.66V27H94.0966V20.86C94.0966 17.6 92.1966 16.08 88.9166 16.08ZM88.6766 25.06C87.5766 25.06 86.9166 24.54 86.9166 23.76C86.9166 23.04 87.3766 22.5 88.8366 22.5H90.9766V23.6C90.6166 24.58 89.7166 25.06 88.6766 25.06Z" fill="#25282B"/>
<path d="M96.9204 27H100.04V12.16H96.9204V27Z" fill="#25282B"/>
<path d="M108.82 27H115.18C119.76 27 122.9 24.24 122.9 20C122.9 15.76 119.76 13 115.18 13H108.82V27ZM112.06 24.34V15.66H115.02C117.8 15.66 119.62 17.32 119.62 20C119.62 22.68 117.8 24.34 115.02 24.34H112.06Z" fill="#25282B"/>
<path d="M135.608 27H139.008L132.748 13H129.548L123.308 27H126.628L127.868 24H134.368L135.608 27ZM128.908 21.54L131.128 16.18L133.348 21.54H128.908Z" fill="#25282B"/>
<defs>
<linearGradient id="paint0_linear" x1="-2.22812e-07" y1="21.7268" x2="14.6154" y2="21.7268" gradientUnits="userSpaceOnUse">
<stop stop-color="#4B9C50"/>
<stop offset="1" stop-color="#53AD59"/>
</linearGradient>
<linearGradient id="paint1_linear" x1="15.3846" y1="26.5868" x2="30" y2="26.5868" gradientUnits="userSpaceOnUse">
<stop stop-color="#53AD59"/>
<stop offset="1" stop-color="#64B56A"/>
</linearGradient>
<linearGradient id="paint2_linear" x1="-2.94444e-06" y1="6.81346" x2="15" y2="6.81346" gradientUnits="userSpaceOnUse">
<stop stop-color="#4B9C50"/>
<stop offset="0.72349" stop-color="#53AD59"/>
<stop offset="1" stop-color="#4B9C50"/>
</linearGradient>
<linearGradient id="paint3_linear" x1="15" y1="6.81346" x2="30" y2="6.81346" gradientUnits="userSpaceOnUse">
<stop stop-color="#4B9C50"/>
<stop offset="0.25641" stop-color="#53AD59"/>
<stop offset="0.98" stop-color="#4B9C50"/>
</linearGradient>
<linearGradient id="paint4_linear" x1="15" y1="8.71442" x2="15" y2="14.4365" gradientUnits="userSpaceOnUse">
<stop stop-color="#4B9C50"/>
<stop offset="1" stop-color="#64B56A"/>
</linearGradient>
</defs>
</svg>
